<svg height="531.900390625" version="1.1" width="185.93359375" xmlns="http://www.w3.org/2000/svg" xmlns:xlink="http://www.w3.org/1999/xlink" style="overflow: hidden; position: relative; top: -0.21875px; color: rgb(51, 51, 51);" viewBox="0 0 185.93359375 531.900390625" preserveAspectRatio="xMidYMid meet"><desc style="-webkit-tap-highlight-color: rgba(0, 0, 0, 0);">Created with Raphaël 2.2.0</desc><defs style="-webkit-tap-highlight-color: rgba(0, 0, 0, 0);"><path stroke-linecap="round" d="M5,0 0,2.5 5,5z" id="raphael-marker-block" style="-webkit-tap-highlight-color: rgba(0, 0, 0, 0);"></path><marker id="raphael-marker-endblock33-objb3kgo" markerHeight="3" markerWidth="3" orient="auto" refX="1.5" refY="1.5" style="-webkit-tap-highlight-color: rgba(0, 0, 0, 0);"><use href="#raphael-marker-block" transform="rotate(180 1.5 1.5) scale(0.6,0.6)" stroke-width="1.6667" fill="currentColor" stroke="none" style="-webkit-tap-highlight-color: rgba(0, 0, 0, 0);"></use></marker><marker id="raphael-marker-endblock33-objq1pqt" markerHeight="3" markerWidth="3" orient="auto" refX="1.5" refY="1.5" style="-webkit-tap-highlight-color: rgba(0, 0, 0, 0);"><use href="#raphael-marker-block" transform="rotate(180 1.5 1.5) scale(0.6,0.6)" stroke-width="1.6667" fill="currentColor" stroke="none" style="-webkit-tap-highlight-color: rgba(0, 0, 0, 0);"></use></marker><marker id="raphael-marker-endblock33-objdmjbc" markerHeight="3" markerWidth="3" orient="auto" refX="1.5" refY="1.5" style="-webkit-tap-highlight-color: rgba(0, 0, 0, 0);"><use href="#raphael-marker-block" transform="rotate(180 1.5 1.5) scale(0.6,0.6)" stroke-width="1.6667" fill="currentColor" stroke="none" style="-webkit-tap-highlight-color: rgba(0, 0, 0, 0);"></use></marker><marker id="raphael-marker-endblock33-obji0pvy" markerHeight="3" markerWidth="3" orient="auto" refX="1.5" refY="1.5" style="-webkit-tap-highlight-color: rgba(0, 0, 0, 0);"><use href="#raphael-marker-block" transform="rotate(180 1.5 1.5) scale(0.6,0.6)" stroke-width="1.6667" fill="currentColor" stroke="none" style="-webkit-tap-highlight-color: rgba(0, 0, 0, 0);"></use></marker><marker id="raphael-marker-endblock33-objanpre" markerHeight="3" markerWidth="3" orient="auto" refX="1.5" refY="1.5" style="-webkit-tap-highlight-color: rgba(0, 0, 0, 0);"><use href="#raphael-marker-block" transform="rotate(180 1.5 1.5) scale(0.6,0.6)" stroke-width="1.6667" fill="currentColor" stroke="none" style="-webkit-tap-highlight-color: rgba(0, 0, 0, 0);"></use></marker></defs><rect x="0" y="0" width="48" height="35.5" rx="20" ry="20" fill="none" stroke="currentColor" style="-webkit-tap-highlight-color: rgba(0, 0, 0, 0);" stroke-width="3" class="flowchart" id="st" transform="matrix(1,0,0,1,57.9668,26.2334)"></rect><text x="10" y="17.75" text-anchor="start" font-family="&quot;Arial&quot;" font-size="14px" stroke="none" fill="currentColor" style="-webkit-tap-highlight-color: rgba(0, 0, 0, 0); text-anchor: start; font-family: Arial; font-size: 14px;" id="stt" class="flowchartt" transform="matrix(1,0,0,1,57.9668,26.2334)" stroke-width="1"><tspan dy="4.75" style="-webkit-tap-highlight-color: rgba(0, 0, 0, 0);">开始</tspan></text><path fill="none" stroke="currentColor" d="M10,17.75L0,35.5L103.5,35.5L123.5,0L20,0L10,17.75" stroke-width="3" id="ipt" class="flowchart" style="-webkit-tap-highlight-color: rgba(0, 0, 0, 0);" transform="matrix(1,0,0,1,20.2168,137.9668)"></path><text x="30" y="17.75" text-anchor="start" font-family="&quot;Arial&quot;" font-size="14px" stroke="none" fill="currentColor" style="-webkit-tap-highlight-color: rgba(0, 0, 0, 0); text-anchor: start; font-family: Arial; font-size: 14px;" id="iptt" class="flowchartt" transform="matrix(1,0,0,1,20.2168,137.9668)" stroke-width="1"><tspan dy="4.75" style="-webkit-tap-highlight-color: rgba(0, 0, 0, 0);">输入一个x</tspan></text><path fill="none" stroke="currentColor" d="M37.9833984375,18.99169921875L0,37.9833984375L75.966796875,75.966796875L151.93359375,37.9833984375L75.966796875,0L0,37.9833984375" stroke-width="3" id="cond1" class="flowchart" style="-webkit-tap-highlight-color: rgba(0, 0, 0, 0);" transform="matrix(1,0,0,1,6,229.4668)"></path><text x="42.9833984375" y="37.9833984375" text-anchor="start" font-family="&quot;Arial&quot;" font-size="14px" stroke="none" fill="currentColor" style="-webkit-tap-highlight-color: rgba(0, 0, 0, 0); text-anchor: start; font-family: Arial; font-size: 14px;" id="cond1t" class="flowchartt" transform="matrix(1,0,0,1,6,229.4668)" stroke-width="1"><tspan dy="4.75" style="-webkit-tap-highlight-color: rgba(0, 0, 0, 0);">x是否大于0</tspan></text><rect x="0" y="0" width="48.5" height="35.5" rx="0" ry="0" fill="none" stroke="currentColor" style="-webkit-tap-highlight-color: rgba(0, 0, 0, 0);" stroke-width="3" class="flowchart" id="tag1" transform="matrix(1,0,0,1,57.7168,381.667)"></rect><text x="10" y="17.75" text-anchor="start" font-family="&quot;Arial&quot;" font-size="14px" stroke="none" fill="currentColor" style="-webkit-tap-highlight-color: rgba(0, 0, 0, 0); text-anchor: start; font-family: Arial; font-size: 14px;" id="tag1t" class="flowchartt" transform="matrix(1,0,0,1,57.7168,381.667)" stroke-width="1"><tspan dy="4.75" style="-webkit-tap-highlight-color: rgba(0, 0, 0, 0);">任务</tspan></text><rect x="0" y="0" width="48" height="35.5" rx="20" ry="20" fill="none" stroke="currentColor" style="-webkit-tap-highlight-color: rgba(0, 0, 0, 0);" stroke-width="3" class="flowchart" id="e" transform="matrix(1,0,0,1,57.9668,493.4004)"></rect><text x="10" y="17.75" text-anchor="start" font-family="&quot;Arial&quot;" font-size="14px" stroke="none" fill="currentColor" style="-webkit-tap-highlight-color: rgba(0, 0, 0, 0); text-anchor: start; font-family: Arial; font-size: 14px;" id="et" class="flowchartt" transform="matrix(1,0,0,1,57.9668,493.4004)" stroke-width="1"><tspan dy="4.75" style="-webkit-tap-highlight-color: rgba(0, 0, 0, 0);">结束</tspan></text><path fill="none" stroke="currentColor" d="M81.966796875,61.7333984375C81.966796875,61.7333984375,81.966796875,117.10984478372848,81.966796875,133.46860945143757" stroke-width="3" marker-end="url(#raphael-marker-endblock33-objb3kgo)" style="-webkit-tap-highlight-color: rgba(0, 0, 0, 0);"></path><path fill="none" stroke="currentColor" d="M81.966796875,173.466796875C81.966796875,173.466796875,81.966796875,211.66756772994995,81.966796875,224.96695719263516" stroke-width="3" marker-end="url(#raphael-marker-endblock33-objq1pqt)" style="-webkit-tap-highlight-color: rgba(0, 0, 0, 0);"></path><path fill="none" stroke="currentColor" d="M81.966796875,305.43359375C81.966796875,305.43359375,81.966796875,360.8100400962285,81.966796875,377.16880476393754" stroke-width="3" marker-end="url(#raphael-marker-endblock33-objdmjbc)" style="-webkit-tap-highlight-color: rgba(0, 0, 0, 0);"></path><text x="86.966796875" y="315.43359375" text-anchor="start" font-family="&quot;Arial&quot;" font-size="14px" stroke="none" fill="currentColor" style="-webkit-tap-highlight-color: rgba(0, 0, 0, 0); text-anchor: start; font-family: Arial; font-size: 14px;" stroke-width="1"><tspan dy="4.75" style="-webkit-tap-highlight-color: rgba(0, 0, 0, 0);">yes</tspan></text><path fill="none" stroke="currentColor" d="M157.93359375,267.4501953125C157.93359375,267.4501953125,182.93359375,267.4501953125,182.93359375,267.4501953125C182.93359375,267.4501953125,182.93359375,468.400390625,182.93359375,468.400390625C182.93359375,468.400390625,81.966796875,468.400390625,81.966796875,468.400390625C81.966796875,468.400390625,81.966796875,481.7043619155884,81.966796875,488.9020182583481" stroke-width="3" marker-end="url(#raphael-marker-endblock33-obji0pvy)" style="-webkit-tap-highlight-color: rgba(0, 0, 0, 0);"></path><text x="162.93359375" y="257.4501953125" text-anchor="start" font-family="&quot;Arial&quot;" font-size="14px" stroke="none" fill="currentColor" style="-webkit-tap-highlight-color: rgba(0, 0, 0, 0); text-anchor: start; font-family: Arial; font-size: 14px;" stroke-width="1"><tspan dy="4.75" style="-webkit-tap-highlight-color: rgba(0, 0, 0, 0);">no</tspan></text><path fill="none" stroke="currentColor" d="M81.966796875,417.1669921875C81.966796875,417.1669921875,81.966796875,483.400390625,81.966796875,483.400390625C81.966796875,483.400390625,81.966796875,486.24344635009766,81.966796875,488.89770540595055" stroke-width="3" marker-end="url(#raphael-marker-endblock33-objanpre)" style="-webkit-tap-highlight-color: rgba(0, 0, 0, 0);"></path></svg>